<!DOCTYPE svg PUBLIC "-//W3C//DTD SVG 1.1//EN" "http://www.w3.org/Graphics/SVG/1.1/DTD/svg11.dtd">
<!-- Uploaded to: SVG Repo, www.svgrepo.com, Transformed by: SVG Repo Mixer Tools -->
<svg fill="#8cccec" width="800px" height="800px" viewBox="0 0 256 256" id="Flat" xmlns="http://www.w3.org/2000/svg" stroke="#8cccec" stroke-width="6.4">
<g id="SVGRepo_bgCarrier" stroke-width="0"/>
<g id="SVGRepo_tracerCarrier" stroke-linecap="round" stroke-linejoin="round"/>
<g id="SVGRepo_iconCarrier"> <path d="M128,28.00012a100,100,0,1,0,100,100A100.113,100.113,0,0,0,128,28.00012Zm0,192a92,92,0,1,1,92-92A92.10446,92.10446,0,0,1,128,220.00012Zm-4-84v-56a4,4,0,1,1,8,0v56a4,4,0,1,1-8,0Zm12,36a8,8,0,1,1-8-8A8.00917,8.00917,0,0,1,136,172.00012Z"/> </g>
</svg>