<svg xmlns="http://www.w3.org/2000/svg" xmlns:xlink="http://www.w3.org/1999/xlink" viewBox="0,0,256,256" width="100px" height="100px" fill-rule="nonzero"><g fill="#ffffff" fill-rule="nonzero" stroke="none" stroke-width="1" stroke-linecap="butt" stroke-linejoin="miter" stroke-miterlimit="10" stroke-dasharray="" stroke-dashoffset="0" font-family="none" font-weight="none" font-size="none" text-anchor="none" style="mix-blend-mode: normal"><g transform="scale(2.56,2.56)"><path d="M49.06445,8.57422c-0.54362,-0.01094 -1.06826,0.19991 -1.45312,0.58398l-6.90039,6.90039c-0.53469,0.5355 -0.72139,1.3269 -0.48242,2.04492l0.81055,2.43359l-1.51953,-1.01367c-0.79325,-0.52862 -1.84933,-0.424 -2.52344,0.25l-5.30859,5.30664c-0.42236,0.42226 -0.63394,1.01116 -0.57687,1.60567c0.05707,0.5945 0.37681,1.1324 0.87179,1.4666c0,0 3.02938,2.0566 5.91211,5.07813c2.88273,3.02153 5.29803,6.88768 4.90039,9.99414c-0.43567,3.40044 -3.16315,7.09117 -6.19531,8.44727c-1.51608,0.67805 -3.02664,0.8319 -4.53906,0.32227c-1.51242,-0.50964 -3.13711,-1.73169 -4.68359,-4.25391c-3.19587,-5.2115 -3.72149,-10.32411 -2.93945,-15.45312c0.78204,-5.12902 2.94511,-10.21987 5.16602,-14.93359c0.39598,-0.84652 0.153,-1.85441 -0.58523,-2.4275c-0.73823,-0.57308 -1.77489,-0.55858 -2.4968,0.03492c0,0 -17.08866,14.14872 -15.58398,38.19531c0.75776,12.11005 6.68605,21.18618 14.31641,27.08984c7.63036,5.90366 16.91224,8.75391 24.83203,8.75391c10.26207,0 19.83568,-5.39893 26.68359,-13.05859c6.84791,-7.65966 11.07752,-17.66012 10.33984,-27.30859c-1.4379,-18.82091 -15.39648,-33.5 -15.39648,-33.5c-0.65846,-0.70208 -1.7236,-0.8356 -2.53499,-0.31779c-0.81139,0.51782 -1.1389,1.54011 -0.77946,2.43302c0,0 1.79933,4.48395 3.08789,10.25977c1.28856,5.77582 1.92061,12.7893 0.0957,17.35156c-1.23814,3.09477 -5.39494,6.15553 -8.95703,6.49023c-1.78105,0.16735 -3.31365,-0.22088 -4.58398,-1.36133c-1.27033,-1.14045 -2.38799,-3.18474 -2.7832,-6.73047c-0.99428,-8.93069 9.5918,-15.01172 9.5918,-15.01172c0.53985,-0.29752 0.91237,-0.82733 1.00968,-1.43601c0.09731,-0.60868 -0.09145,-1.22822 -0.51163,-1.67923l-5.48633,-5.87695c-0.70597,-0.75647 -1.87234,-0.84965 -2.68945,-0.21484l-0.97656,0.75977l0.72266,-2.16797c0.23198,-0.69551 0.06485,-1.46219 -0.43555,-1.99805l-5.99609,-6.42383c-0.36876,-0.39496 -0.88163,-0.62392 -1.42187,-0.63477zM48.97461,13.45117l3.77344,4.04297l-2.43555,7.30664c-0.27806,0.83593 0.02353,1.75537 0.74271,2.26419c0.71917,0.50882 1.68657,0.48719 2.38229,-0.05325l4.74805,-3.69336l2.60742,2.79297c-1.40192,0.98856 -3.29368,2.51342 -5.0293,4.52539l-1.93945,-0.59375c-0.09541,-0.0303 -0.19482,-0.0461 -0.29492,-0.04687c-0.50086,-0.00695 -0.92961,0.35771 -1.00314,0.85319c-0.07353,0.49548 0.23083,0.96894 0.71212,1.10775l1.20313,0.36914c-0.31141,0.43945 -0.61451,0.89377 -0.89648,1.36914l-2.67383,-0.66602c-0.09684,-0.02521 -0.19691,-0.03574 -0.29687,-0.03125c-0.49895,0.02175 -0.90538,0.40826 -0.95215,0.9055c-0.04677,0.49723 0.28045,0.95275 0.7666,1.06716l2.21875,0.55273c-1.06677,2.37203 -1.66676,5.10103 -1.32422,8.17773c0.46979,4.21478 1.90716,7.3094 4.08398,9.26367c0.96881,0.86976 2.06612,1.46994 3.21484,1.86133l-0.17578,3.11719c-0.02031,0.35696 0.15139,0.69763 0.45039,0.89366c0.29901,0.19603 0.67989,0.21762 0.99914,0.05665c0.31925,-0.16098 0.52835,-0.48006 0.54852,-0.83702l0.15625,-2.77344c0.4787,0.06102 0.96009,0.10233 1.43945,0.09961v4.61719c-0.0051,0.36064 0.18438,0.69608 0.49587,0.87789c0.3115,0.18181 0.69676,0.18181 1.00825,0c0.3115,-0.18181 0.50097,-0.51725 0.49587,-0.87789v-4.79883c0.55608,-0.09388 1.10508,-0.22946 1.64844,-0.38867l1.42383,3.55859c0.12187,0.34663 0.42399,0.59852 0.78688,0.65605c0.36289,0.05753 0.72811,-0.08855 0.95122,-0.38049c0.22311,-0.29193 0.26817,-0.6827 0.11736,-1.01775l-1.40234,-3.50391c1.01308,-0.44873 1.98321,-1.00131 2.87891,-1.65234l2.04102,1.35938c0.29723,0.20495 0.68184,0.23379 1.00631,0.07547c0.32447,-0.15833 0.53841,-0.47925 0.55977,-0.83965c0.02135,-0.36041 -0.1532,-0.70434 -0.4567,-0.89988l-1.55078,-1.0332c1.4274,-1.36544 2.57454,-2.99334 3.29297,-4.78906c1.03503,-2.58756 1.42578,-5.44592 1.45508,-8.3457h1.24805c0.36064,0.0051 0.69608,-0.18438 0.87789,-0.49587c0.18181,-0.3115 0.18181,-0.69676 0,-1.00825c-0.18181,-0.3115 -0.51725,-0.50097 -0.87789,-0.49587h-1.27734c-0.02454,-0.52623 -0.04887,-1.05174 -0.09375,-1.57617l2.27148,-0.9082c1.19901,2.62139 2.26948,5.46681 3.04492,8.48438h-2.94531c-0.36064,-0.0051 -0.69608,0.18438 -0.87789,0.49587c-0.18181,0.3115 -0.18181,0.69676 0,1.00825c0.18181,0.3115 0.51725,0.50097 0.87789,0.49587h3.41406c0.33319,1.6103 0.57882,3.25932 0.70703,4.9375c0.00015,0.00194 -0.00015,0.00392 0,0.00586l-1.67383,-0.83789c-0.14894,-0.07696 -0.31483,-0.11524 -0.48242,-0.11133c-0.46199,0.01057 -0.85658,0.33628 -0.95451,0.78789c-0.09793,0.45161 0.12629,0.91152 0.5424,1.1125l2.62109,1.31055c-0.09758,5.63376 -2.08075,11.52593 -5.39844,16.77734l-1.2207,-0.81445c-0.16614,-0.11414 -0.36289,-0.17541 -0.56445,-0.17578c-0.4436,-0.00078 -0.83471,0.29075 -0.96068,0.71609c-0.12598,0.42534 0.04328,0.88283 0.41576,1.12376l1.21875,0.8125c-0.35711,0.50684 -0.72782,1.00477 -1.10937,1.49609l-2.84766,-2.84766c-0.18827,-0.19353 -0.4468,-0.30272 -0.7168,-0.30273c-0.40692,0.00011 -0.77321,0.24676 -0.92633,0.62377c-0.15312,0.37701 -0.06255,0.80921 0.22907,1.09303l2.98828,2.98828c-0.16564,0.19255 -0.32477,0.39063 -0.49414,0.58008c-5.00728,5.60084 -11.5598,9.76491 -18.5293,11.1875l-0.76367,-2.73242c-0.11499,-0.43447 -0.50568,-0.73887 -0.95508,-0.74414c-0.31737,-0.00366 -0.61764,0.14355 -0.80913,0.39668c-0.19148,0.25313 -0.25144,0.58212 -0.16158,0.88653l0.70508,2.52344c-0.8772,0.11114 -1.75983,0.17005 -2.64453,0.18945v-3.98242c0.0037,-0.2703 -0.10218,-0.53059 -0.29351,-0.72155c-0.19133,-0.19097 -0.45182,-0.29634 -0.72212,-0.29212c-0.55152,0.00862 -0.99193,0.46214 -0.98437,1.01367v3.95898c-2.03801,-0.10225 -4.19019,-0.41832 -6.37891,-0.94727l0.27344,-2.91797c0.03099,-0.28636 -0.06299,-0.57218 -0.25788,-0.78427c-0.19488,-0.21209 -0.47175,-0.32986 -0.7597,-0.32315c-0.51267,0.01143 -0.93363,0.40877 -0.97461,0.91992l-0.24023,2.58008c-0.54891,-0.16363 -1.09902,-0.34476 -1.64844,-0.53516l1.25195,-2.50391c0.16492,-0.3182 0.14697,-0.70032 -0.04706,-1.00165c-0.19403,-0.30133 -0.53447,-0.4758 -0.89239,-0.45733c-0.36508,0.01873 -0.69085,0.23517 -0.84961,0.56445l-1.3457,2.69141c-1.30602,-0.52784 -2.60081,-1.13087 -3.87109,-1.8125l0.92188,-1.27148c0.22601,-0.30174 0.26313,-0.70493 0.09602,-1.04287c-0.16711,-0.33793 -0.51006,-0.55318 -0.88703,-0.55674c-0.33,-0.00372 -0.64058,0.15559 -0.83008,0.42578l-1.04687,1.44727c-0.99544,-0.60336 -1.96803,-1.25797 -2.91211,-1.96094l1.53516,-1.83008c0.25811,-0.29834 0.31673,-0.72054 0.14964,-1.07791c-0.16708,-0.35737 -0.52864,-0.58313 -0.92308,-0.57638c-0.29465,0.00538 -0.57193,0.14045 -0.75781,0.36914l-1.57812,1.87891c-0.51645,-0.43091 -1.02196,-0.87559 -1.51562,-1.33789l2.66016,-3.56055c0.22925,-0.29813 0.27187,-0.69967 0.11031,-1.03928c-0.16156,-0.33961 -0.49999,-0.55987 -0.87594,-0.57009c-0.32954,-0.0088 -0.64224,0.14536 -0.83594,0.41211l-2.48828,3.33008c-0.37191,-0.3921 -0.73544,-0.79466 -1.08984,-1.20703l1.24805,-1.66406c0.23004,-0.29757 0.27366,-0.69905 0.11292,-1.03909c-0.16075,-0.34004 -0.49868,-0.56114 -0.87464,-0.57224c-0.33022,-0.00945 -0.6438,0.14478 -0.83789,0.41211l-0.94141,1.25391c-3.45053,-4.57594 -5.81856,-10.27577 -6.35156,-17.21875l1.5625,-0.48047c0.48537,-0.14209 0.78828,-0.62416 0.7057,-1.12312c-0.08258,-0.49896 -0.52465,-0.85773 -1.02992,-0.83587c-0.08968,0.00437 -0.17837,0.02079 -0.26367,0.04883l-1.08203,0.33398c-0.01696,-0.59912 -0.01875,-1.18936 -0.01172,-1.77344l2.80078,-0.63086c0.51341,-0.10824 0.85588,-0.59486 0.78448,-1.11468c-0.0714,-0.51982 -0.53238,-0.89608 -1.05596,-0.86189c-0.05666,0.00433 -0.11286,0.01347 -0.16797,0.02734l-2.28906,0.51563c0.05174,-0.86296 0.12099,-1.71348 0.2207,-2.54102h2.28906c0.36064,0.0051 0.69608,-0.18438 0.87789,-0.49587c0.18181,-0.3115 0.18181,-0.69676 0,-1.00825c-0.18181,-0.3115 -0.51725,-0.50097 -0.87789,-0.49587h-2.00195c0.23574,-1.39 0.53965,-2.71916 0.88867,-4h2.67383c0.36064,0.0051 0.69608,-0.18438 0.87789,-0.49587c0.18181,-0.3115 0.18181,-0.69676 0,-1.00825c-0.18181,-0.3115 -0.51725,-0.50097 -0.87789,-0.49587h-2.07422c0.31669,-0.97007 0.66035,-1.90467 1.02539,-2.80469l2.23242,0.66016c-0.23427,4.88961 0.7324,10.00164 3.7832,14.97656c1.39165,2.26969 3.02248,3.92816 4.79102,4.99805l-1.63281,1.41406c-0.28167,0.23045 -0.41593,0.59571 -0.35055,0.95372c0.06538,0.35801 0.32008,0.65224 0.66503,0.76825c0.34495,0.11601 0.72568,0.03548 0.99411,-0.21026l2.29883,-1.99023c0.01701,0.00584 0.03375,0.01379 0.05078,0.01953c0.91038,0.30677 1.83093,0.45829 2.74219,0.48828l-0.50586,2.53125c-0.0807,0.3547 0.03755,0.72524 0.30879,0.96762c0.27125,0.24238 0.65271,0.31837 0.99613,0.19843c0.34342,-0.11994 0.59464,-0.41688 0.65602,-0.77543l0.61328,-3.0625c0.61139,-0.1061 1.21139,-0.265 1.79102,-0.4707l0.64453,2.58008c0.08645,0.34688 0.35142,0.62128 0.69507,0.71979c0.34365,0.09851 0.71375,0.00617 0.97085,-0.24222c0.2571,-0.2484 0.36212,-0.61511 0.27548,-0.96194l-0.73633,-2.94141c0.68421,-0.37827 1.33646,-0.81738 1.95117,-1.30664l1.08008,1.16797c0.23786,0.27917 0.60945,0.40574 0.96826,0.32982c0.35881,-0.07592 0.64729,-0.34214 0.7517,-0.69373c0.10441,-0.35158 0.008,-0.73211 -0.25121,-0.99157l-1.07031,-1.1582c2.19467,-2.28987 3.69663,-5.2864 4.09961,-8.43164c0.25809,-2.01627 -0.08913,-3.93738 -0.79297,-5.73242h0.24414c0.36064,0.0051 0.69608,-0.18438 0.87789,-0.49587c0.18181,-0.3115 0.18181,-0.69676 0,-1.00825c-0.18181,-0.3115 -0.51725,-0.50097 -0.87789,-0.49587h-1.21094c-0.32066,-0.57455 -0.66823,-1.13117 -1.04102,-1.67187l1.26172,-0.36914c0.48643,-0.13599 0.79513,-0.61332 0.71959,-1.11273c-0.07553,-0.4994 -0.51158,-0.86411 -1.01647,-0.85016c-0.09016,0.00293 -0.17951,0.01804 -0.26562,0.04492l-1.98242,0.58008c-0.61838,-0.75856 -1.2549,-1.48601 -1.89063,-2.15234c-1.72656,-1.80969 -3.37738,-3.20109 -4.64062,-4.19141l2.51562,-2.51562l5.00586,3.33594c0.71099,0.47306 1.64389,0.44254 2.32244,-0.07596c0.67855,-0.51851 0.95308,-1.41062 0.68342,-2.22091l-2.26172,-6.78906zM21.7832,26.79883c-0.46781,1.61871 -1.04286,3.19317 -1.30078,4.88477c-0.05714,0.37475 -0.08888,0.75641 -0.13281,1.13477l-1.59961,-0.47266c0.94613,-2.05512 1.9847,-3.91096 3.0332,-5.54687zM75.46289,27.02148c0.3439,0.56727 0.68912,1.17052 1.0332,1.7793l-0.59375,0.39648c-0.13815,-0.73922 -0.28485,-1.46751 -0.43945,-2.17578zM77.45117,30.56836c0.19891,0.37901 0.40049,0.74507 0.5957,1.13672l-1.64844,0.66016c-0.04387,-0.33695 -0.08676,-0.67207 -0.13672,-1.00586zM24.07031,62c-0.552,0 -1,0.448 -1,1c0,0.552 0.448,1 1,1c0.552,0 1,-0.448 1,-1c0,-0.552 -0.448,-1 -1,-1zM56,64c-0.552,0 -1,0.448 -1,1c0,0.552 0.448,1 1,1c0.552,0 1,-0.448 1,-1c0,-0.552 -0.448,-1 -1,-1zM60,75c-0.552,0 -1,0.448 -1,1c0,0.552 0.448,1 1,1c0.552,0 1,-0.448 1,-1c0,-0.552 -0.448,-1 -1,-1z"></path></g></g></svg>